# xmcd
#
# Track frame offsets: 
#        150
#        21360
#        44693
#        65806
#        91307
#        112998
#        136924
#        156528
#        175410
#        192281
#        208739
#        230432
#        253520
#        274656
#        297022
#
# Disc length: 4249 seconds
#
# Revision: 2
# Processed by: cddbd v1.5.2PL0 Copyright (c) Steve Scherf et al.
# Submitted via: ExactAudioCopyFreeDBPlugin 1.0
#
DISCID=e210970f
DTITLE=The Isley Brothers - Between the Sheets
DYEAR=1983
DGENRE=Rhythm and Blues
TTITLE0=Choosey Lover
TTITLE1=Touch Me
TTITLE2=I Need Your Body
TTITLE3=Between the Sheets
TTITLE4=Let's Make Love Tonight
TTITLE5=Ballad for the Fallen Soldier
TTITLE6=Slow Down Children
TTITLE7=Way Out Love
TTITLE8=Gettin' Over
TTITLE9=Rock You Good
TTITLE10=Choosey Lover (instrumental)
TTITLE11=Touch Me (instrumental) (previously unreleased)
TTITLE12=I Need Your Body (instrumental) (promo)
TTITLE13=Between The Sheets (instrumental)
TTITLE14=Let's Make Love Tonight (instrumental)
EXTD=
EXTT0=
EXTT1=
EXTT2=
EXTT3=
EXTT4=
EXTT5=
EXTT6=
EXTT7=
EXTT8=
EXTT9=
EXTT10=
EXTT11=
EXTT12=
EXTT13=
EXTT14=
PLAYORDER=
